<svg id="Layer_1" data-name="Layer 1" xmlns="http://www.w3.org/2000/svg" viewBox="0 0 1314.22 329.5"><defs><style>.cls-1{fill:#fff;}.cls-2{fill:#14161e;}.cls-3{fill:#003751;}</style></defs><rect class="cls-1" width="329.5" height="329.5" rx="163.48"/><path class="cls-2" d="M785.12,542.25a117.3,117.3,0,0,1-80.37,35.25l-.26-24A93.72,93.72,0,0,0,787.92,425l-20,20.42a68.46,68.46,0,0,1-88.86,79.39l.16,15.3h0l.56,49.16h0l.13,11.88A142.8,142.8,0,0,0,824.3,387.86l-18.37,18.78A117.85,117.85,0,0,1,785.12,542.25Z" transform="translate(-537.19 -296.09)"/><path class="cls-3" d="M753.32,327.07A142.8,142.8,0,0,0,648.75,592.84q3,1.17,6,2.2l-.29-27A117.66,117.66,0,1,1,773.89,367.57L756.94,384.9A93.6,93.6,0,1,0,654.15,541l-.33-31.45c-.23-.22-.46-.43-.67-.66a68.49,68.49,0,1,1,104-88.29l9.59-9.8,8.2-8.38,16.94-17.32,9.25-9.45,8.4-8.58q-4.07-4.75-8.59-9.17A141.81,141.81,0,0,0,753.32,327.07Z" transform="translate(-537.19 -296.09)"/><path d="M929.59,499.46a51.41,51.41,0,0,1-20.1-19.27,56.26,56.26,0,0,1,.08-55.5,51.89,51.89,0,0,1,20.17-19.28,59.11,59.11,0,0,1,28.72-7,60,60,0,0,1,23.56,4.5A48.19,48.19,0,0,1,1000,416l-12.6,11.85a36.78,36.78,0,0,0-28-12.3A39.3,39.3,0,0,0,940,420.26a34,34,0,0,0-13.35,13.13,40.2,40.2,0,0,0,0,38.1A34,34,0,0,0,940,484.61a39.3,39.3,0,0,0,19.35,4.73,36.58,36.58,0,0,0,28-12.45l12.6,12a48,48,0,0,1-18.08,13.05,60.48,60.48,0,0,1-23.62,4.5A59.13,59.13,0,0,1,929.59,499.46Z" transform="translate(-537.19 -296.09)"/><path d="M1092,424.84l-37.5,86.55q-5.25,13.05-12.75,18.37t-18.15,5.33a37.25,37.25,0,0,1-11.85-2,26.27,26.27,0,0,1-9.6-5.4l7.5-13.8a20.44,20.44,0,0,0,6.38,4,19.48,19.48,0,0,0,7.42,1.5,12.79,12.79,0,0,0,8.18-2.55q3.23-2.55,5.92-8.55l1.35-3.15-34.95-80.4h19.5l25.2,59.25L1074,424.84Z" transform="translate(-537.19 -296.09)"/><path d="M1169,429a36.77,36.77,0,0,1,14.47,14.4,46.59,46.59,0,0,1,0,43A36.58,36.58,0,0,1,1169,500.89a42.54,42.54,0,0,1-20.93,5.1,38.72,38.72,0,0,1-15.07-2.85,29,29,0,0,1-11.48-8.55v10.35h-17.85V393.64h18.75v40.95a31.5,31.5,0,0,1,11.33-7.95,37.08,37.08,0,0,1,14.32-2.7A42.54,42.54,0,0,1,1169,429Zm-6,54q6.67-6.9,6.67-18.15T1163,446.74q-6.67-6.9-17-6.9a24.21,24.21,0,0,0-12.15,3.07,22.3,22.3,0,0,0-8.55,8.78,29.23,29.23,0,0,0,0,26.4,22.14,22.14,0,0,0,8.55,8.77,24,24,0,0,0,12.15,3.08Q1156.31,489.94,1163,483Z" transform="translate(-537.19 -296.09)"/><path d="M1281.56,470.89h-62.85a21.77,21.77,0,0,0,8.62,14q7,5.18,17.33,5.18,13.2,0,21.75-8.7l10,11.55a33.86,33.86,0,0,1-13.65,9.75,54.09,54.09,0,0,1-41.85-1.95,37.77,37.77,0,0,1-15.53-14.63,41.25,41.25,0,0,1-5.47-21.22,41.86,41.86,0,0,1,5.33-21.08,37.75,37.75,0,0,1,14.77-14.62,43.11,43.11,0,0,1,21.3-5.25,42.07,42.07,0,0,1,20.93,5.17,36.75,36.75,0,0,1,14.39,14.55,44.17,44.17,0,0,1,5.18,21.68Q1281.86,467.29,1281.56,470.89Zm-55.43-26.63a22.43,22.43,0,0,0-7.57,14.18H1264a22.1,22.1,0,0,0-7.35-14.1,22.35,22.35,0,0,0-15.3-5.4A22.68,22.68,0,0,0,1226.13,444.26Z" transform="translate(-537.19 -296.09)"/><path d="M1346.21,423.94v17.85a23.8,23.8,0,0,0-4.35-.45q-11,0-17.1,6.37t-6.15,18.38v38.85h-18.75v-80.1h17.85v11.7Q1325.81,423.94,1346.21,423.94Z" transform="translate(-537.19 -296.09)"/><path d="M1430.13,404.44a34.58,34.58,0,0,1,15.53,12.9q5.4,8.4,5.4,20a36.14,36.14,0,0,1-5.4,19.87,34.36,34.36,0,0,1-15.53,13q-10.12,4.5-23.77,4.5h-23.7v30.3h-19.5v-105h43.2Q1420,399.94,1430.13,404.44Zm-5.32,48.3q6.6-5.4,6.6-15.45t-6.6-15.45q-6.6-5.4-19.35-5.4h-22.8v41.7h22.8Q1418.21,458.14,1424.81,452.74Z" transform="translate(-537.19 -296.09)"/><path d="M1514.36,423.94v17.85a23.8,23.8,0,0,0-4.35-.45q-11,0-17.1,6.37t-6.15,18.38v38.85H1468v-80.1h17.85v11.7Q1494,423.94,1514.36,423.94Z" transform="translate(-537.19 -296.09)"/><path d="M1543.61,500.74a38.24,38.24,0,0,1-15.23-14.63,43.76,43.76,0,0,1,0-42.37,38.45,38.45,0,0,1,15.23-14.55,48.62,48.62,0,0,1,44,0,38.52,38.52,0,0,1,15.23,14.55,43.76,43.76,0,0,1,0,42.37,38.3,38.3,0,0,1-15.23,14.63,48.62,48.62,0,0,1-44,0Zm39-17.7q6.75-6.9,6.75-18.15t-6.75-18.15a22.91,22.91,0,0,0-17.1-6.9q-10.35,0-17,6.9t-6.68,18.15q0,11.25,6.68,18.15t17,6.9A22.91,22.91,0,0,0,1582.61,483Z" transform="translate(-537.19 -296.09)"/><path d="M1674.41,500.59a22.1,22.1,0,0,1-8,4.05,36.11,36.11,0,0,1-10,1.35q-13.2,0-20.4-6.9t-7.2-20.1V440.44h-13.2v-15h13.2v-18.3h18.75v18.3H1669v15h-21.45v38.1c0,3.9,1,6.88,2.85,8.92s4.65,3.08,8.25,3.08a16.47,16.47,0,0,0,10.5-3.3Z" transform="translate(-537.19 -296.09)"/><path d="M1762.16,470.89h-62.85a21.77,21.77,0,0,0,8.62,14q7,5.18,17.33,5.18,13.2,0,21.75-8.7l10,11.55a33.86,33.86,0,0,1-13.65,9.75,54.09,54.09,0,0,1-41.85-1.95A37.77,37.77,0,0,1,1686,486.11a41.25,41.25,0,0,1-5.47-21.22,42,42,0,0,1,5.32-21.08,37.84,37.84,0,0,1,14.78-14.62,43.11,43.11,0,0,1,21.3-5.25,42,42,0,0,1,20.92,5.17,36.71,36.71,0,0,1,14.4,14.55,44.17,44.17,0,0,1,5.18,21.68Q1762.46,467.29,1762.16,470.89Zm-55.43-26.63a22.43,22.43,0,0,0-7.57,14.18h45.45a22.1,22.1,0,0,0-7.35-14.1,22.35,22.35,0,0,0-15.3-5.4A22.68,22.68,0,0,0,1706.73,444.26Z" transform="translate(-537.19 -296.09)"/><path d="M1794.86,500.74a38.49,38.49,0,0,1-15.45-14.63,43.21,43.21,0,0,1,0-42.37,38.82,38.82,0,0,1,15.37-14.55,46.86,46.86,0,0,1,22.43-5.25,43.18,43.18,0,0,1,20.77,4.8,31.15,31.15,0,0,1,13.43,13.8l-14.4,8.4a23,23,0,0,0-8.63-8.33,25.19,25.19,0,0,0-28.72,4.05q-6.9,6.84-6.9,18.23t6.82,18.22q6.83,6.84,17.48,6.83a23.46,23.46,0,0,0,11.32-2.78,22.79,22.79,0,0,0,8.63-8.32l14.4,8.4a32.4,32.4,0,0,1-13.58,13.87,42.21,42.21,0,0,1-20.62,4.88A47,47,0,0,1,1794.86,500.74Z" transform="translate(-537.19 -296.09)"/></svg>